<?xml version="1.0" encoding="utf-8"?>
<!-- Generator: Adobe Illustrator 27.0.0, SVG Export Plug-In . SVG Version: 6.00 Build 0)  -->
<svg version="1.1" id="Layer_1" xmlns="http://www.w3.org/2000/svg" xmlns:xlink="http://www.w3.org/1999/xlink" x="0px" y="0px"
	 viewBox="0 0 108 108" style="enable-background:new 0 0 108 108;" xml:space="preserve">
<style type="text/css">
	.st0{fill:#F6F6F6;}
	.st1{fill:#AD1C00;}
	.st2{fill:#FFFFFF;}
	.st3{fill:#333333;}
	.st4{fill:#FFC800;}
	.st5{fill:#632ED8;}
</style>
<rect class="st0" width="108" height="108"/>
<polygon class="st1" points="31.3,0 30.8,0 29.5,0 29.3,0 0,0 0,31.3 0,50.5 55.6,0 "/>
<g>
	<g>
		<path class="st2" d="M12.7,25.2l1,0.6L13,25l-4.6-5.1l1.2-1.1l6.7,7.3l-1.7,1.6l-7.2-2.8l-1-0.6l0.8,0.8l4.6,5.1l-1.2,1.1L3.8,24
			l1.7-1.6L12.7,25.2z"/>
		<path class="st2" d="M23,19.9l-5.1,4.6l-6.7-7.3l5.1-4.6l0.9,1L13.4,17l1.7,1.9l3.5-3.2l0.9,1L16,19.9l2.3,2.5l3.8-3.5L23,19.9z"
			/>
		<path class="st2" d="M22.4,7l5.9,4l0.8,0.6l-0.5-0.9l-3.4-6.2l1.3-1.2l4.6,9.2l-1.3,1.2l-6-4L23,9.1l0.5,0.9l3.4,6.4l-1.4,1.3
			l-8.7-5.6l1.3-1.2l5.8,4l0.8,0.6l-0.5-0.9l-3.4-6.3L22.4,7z"/>
	</g>
</g>
<g>
	<g>
		<g>
			<g>
				<g>
					<polygon class="st2" points="69.3,75.5 70.5,48.9 73.9,48.9 75,75.5 					"/>
					<path class="st3" d="M73.2,49.6l1.1,25.1h-4.2l1.1-25.1H73.2 M74.6,48.2h-4.8l-1.2,28h7.3L74.6,48.2L74.6,48.2z"/>
				</g>
				<g>
					<g>
						<path class="st4" d="M61.9,40.8c0.7-0.2,1.4-0.3,2.1-0.3c2.1,0,4.2,0.8,5.7,2.2c2.1,1.9,3.1,4.8,2.7,7.6L61.9,40.8z"/>
						<path class="st3" d="M64,41.3c1.9,0,3.8,0.7,5.2,2c1.6,1.4,2.5,3.4,2.5,5.5l-8.3-7.5C63.7,41.3,63.9,41.3,64,41.3 M64,39.8
							c-1.2,0-2.4,0.2-3.6,0.7l12.4,11.3c1-3.3,0.1-7.1-2.6-9.6C68.5,40.6,66.2,39.8,64,39.8L64,39.8z"/>
					</g>
				</g>
				<g>
					<g>
						<path class="st4" d="M72.4,51c1.6-2.4,4.3-3.8,7.1-3.8c2.9,0,5.6,1.5,7.1,3.8H72.4z"/>
						<path class="st3" d="M79.5,47.9c2.1,0,4.1,0.9,5.6,2.4H73.9C75.4,48.8,77.4,47.9,79.5,47.9 M79.5,46.4c-3.7,0-6.9,2.2-8.4,5.3
							h16.8C86.4,48.6,83.2,46.4,79.5,46.4L79.5,46.4z"/>
					</g>
				</g>
				<g>
					<g>
						<path class="st4" d="M72.6,50.2c-0.8-2.7-0.2-5.7,1.6-7.9c1.6-2,4-3.1,6.6-3.1c0.3,0,0.6,0,0.9,0L72.6,50.2z"/>
						<path class="st3" d="M80.1,40L73,48.6c-0.2-2.1,0.4-4.2,1.7-5.8C76.1,41.2,78,40.2,80.1,40 M80.8,38.5c-2.7,0-5.3,1.1-7.2,3.4
							c-2.4,2.8-2.7,6.7-1.3,9.8l10.7-12.9C82.3,38.6,81.5,38.5,80.8,38.5L80.8,38.5z"/>
					</g>
				</g>
				<g>
					<g>
						<path class="st4" d="M72.6,50.6c0.5-2.8,2.3-5.2,4.9-6.4c1.1-0.5,2.3-0.8,3.5-0.8c1.6,0,3.2,0.5,4.6,1.3L72.6,50.6z"/>
						<path class="st3" d="M81,44.1c1,0,2,0.2,2.9,0.5l-10.2,4.6c0.7-1.9,2.2-3.6,4.1-4.4C78.8,44.4,79.9,44.1,81,44.1 M81,42.7
							c-1.3,0-2.6,0.3-3.8,0.8c-3.4,1.5-5.4,4.8-5.5,8.3l15.3-6.9C85.4,43.4,83.2,42.7,81,42.7L81,42.7z"/>
					</g>
				</g>
				<g>
					<g>
						<path class="st4" d="M57.7,51c1.6-2.4,4.3-3.8,7.1-3.8c2.9,0,5.6,1.5,7.1,3.8H57.7z"/>
						<path class="st3" d="M64.9,47.9c2.1,0,4.1,0.9,5.6,2.4H59.3C60.7,48.8,62.8,47.9,64.9,47.9 M64.9,46.4c-3.7,0-6.9,2.2-8.4,5.3
							h16.8C71.8,48.6,68.6,46.4,64.9,46.4L64.9,46.4z"/>
					</g>
				</g>
				<g>
					<g>
						<ellipse class="st5" cx="70.2" cy="52" rx="1.7" ry="1.7"/>
						<path class="st3" d="M70.2,51.1c0.5,0,0.9,0.4,0.9,0.9s-0.4,0.9-0.9,0.9c-0.5,0-0.9-0.4-0.9-0.9S69.7,51.1,70.2,51.1
							 M70.2,49.6c-1.3,0-2.4,1.1-2.4,2.4s1.1,2.4,2.4,2.4c1.3,0,2.4-1.1,2.4-2.4S71.6,49.6,70.2,49.6L70.2,49.6z"/>
					</g>
					<g>
						<ellipse class="st5" cx="74" cy="50.6" rx="1.7" ry="1.7"/>
						<path class="st3" d="M74,49.6c0.5,0,0.9,0.4,0.9,0.9s-0.4,0.9-0.9,0.9s-0.9-0.4-0.9-0.9S73.5,49.6,74,49.6 M74,48.2
							c-1.3,0-2.4,1.1-2.4,2.4S72.7,53,74,53s2.4-1.1,2.4-2.4S75.3,48.2,74,48.2L74,48.2z"/>
					</g>
				</g>
			</g>
			<g>
				<g>
					<polygon class="st5" points="87.9,85.4 52.4,85.4 38.7,59.3 74.2,59.3 					"/>
					<path class="st3" d="M87.9,86.2H52.4c-0.3,0-0.5-0.2-0.7-0.4L38.1,59.6c-0.1-0.2-0.1-0.5,0-0.7c0.1-0.2,0.4-0.4,0.6-0.4h35.5
						c0.3,0,0.5,0.2,0.7,0.4l13.7,26.2c0.1,0.2,0.1,0.5,0,0.7C88.4,86,88.2,86.2,87.9,86.2z M52.8,84.7h33.8L73.8,60H39.9L52.8,84.7
						z"/>
				</g>
				<g>
					<polygon class="st2" points="38.7,59.3 25.1,85.4 52.4,85.4 					"/>
					<path class="st3" d="M52.4,86.2H25.1c-0.3,0-0.5-0.1-0.6-0.4c-0.1-0.2-0.1-0.5,0-0.7l13.7-26.2c0.3-0.5,1.1-0.5,1.3,0L53,85.1
						c0.1,0.2,0.1,0.5,0,0.7C52.9,86,52.6,86.2,52.4,86.2z M26.3,84.7h24.9L38.7,60.9L26.3,84.7z"/>
				</g>
				<g>
					<path class="st3" d="M38.7,86.2c-0.4,0-0.7-0.3-0.7-0.7V59.3c0-0.4,0.3-0.7,0.7-0.7s0.7,0.3,0.7,0.7v26.2
						C39.5,85.8,39.1,86.2,38.7,86.2z"/>
				</g>
				<g>
					<path class="st3" d="M56.6,66.6c-6.1,0-12-1.8-17.1-5.2c-0.3-0.2-0.4-0.7-0.2-1c0.2-0.3,0.7-0.4,1-0.2c4.8,3.2,10.4,5,16.2,5
						c6.4,0,12.5-2.1,17.6-5.9c0.3-0.2,0.8-0.2,1,0.1c0.2,0.3,0.2,0.8-0.1,1C69.7,64.5,63.3,66.6,56.6,66.6z"/>
				</g>
				<g>
					<g>
						<circle class="st4" cx="40.1" cy="61" r="1.3"/>
					</g>
					<g>
						<circle class="st4" cx="46.2" cy="64.8" r="1.3"/>
					</g>
					<g>
						<circle class="st4" cx="53.6" cy="66.3" r="1.3"/>
					</g>
					<g>
						<circle class="st4" cx="61.3" cy="66.3" r="1.3"/>
					</g>
					<g>
						<circle class="st4" cx="68" cy="64.3" r="1.3"/>
					</g>
					<g>
						<circle class="st4" cx="73.8" cy="61.4" r="1.3"/>
					</g>
				</g>
			</g>
			<g>
				<g>
					<circle class="st4" cx="34.9" cy="36.4" r="5.5"/>
					<path class="st3" d="M34.9,42.6c-3.5,0-6.3-2.8-6.3-6.3s2.8-6.3,6.3-6.3c3.5,0,6.3,2.8,6.3,6.3S38.3,42.6,34.9,42.6z
						 M34.9,31.6c-2.6,0-4.8,2.1-4.8,4.8c0,2.6,2.1,4.8,4.8,4.8c2.6,0,4.8-2.1,4.8-4.8C39.6,33.7,37.5,31.6,34.9,31.6z"/>
				</g>
				<g>
					<g>
						<line class="st4" x1="34.9" y1="26.5" x2="34.9" y2="28.1"/>
						<path class="st3" d="M34.9,28.8c-0.4,0-0.7-0.3-0.7-0.7v-1.6c0-0.4,0.3-0.7,0.7-0.7s0.7,0.3,0.7,0.7v1.6
							C35.6,28.5,35.3,28.8,34.9,28.8z"/>
					</g>
					<g>
						<line class="st4" x1="34.9" y1="44.6" x2="34.9" y2="46.2"/>
						<path class="st3" d="M34.9,46.9c-0.4,0-0.7-0.3-0.7-0.7v-1.6c0-0.4,0.3-0.7,0.7-0.7s0.7,0.3,0.7,0.7v1.6
							C35.6,46.6,35.3,46.9,34.9,46.9z"/>
					</g>
				</g>
				<g>
					<g>
						<line class="st4" x1="41.8" y1="29.4" x2="40.7" y2="30.5"/>
						<path class="st3" d="M40.7,31.3c-0.2,0-0.4-0.1-0.5-0.2c-0.3-0.3-0.3-0.8,0-1l1.1-1.1c0.3-0.3,0.8-0.3,1,0
							c0.3,0.3,0.3,0.8,0,1L41.2,31C41.1,31.2,40.9,31.3,40.7,31.3z"/>
					</g>
					<g>
						<line class="st4" x1="29.1" y1="42.2" x2="27.9" y2="43.3"/>
						<path class="st3" d="M27.9,44c-0.2,0-0.4-0.1-0.5-0.2c-0.3-0.3-0.3-0.8,0-1l1.1-1.1c0.3-0.3,0.8-0.3,1,0c0.3,0.3,0.3,0.8,0,1
							l-1.1,1.1C28.3,44,28.1,44,27.9,44z"/>
					</g>
				</g>
				<g>
					<g>
						<line class="st4" x1="44.7" y1="36.4" x2="43.1" y2="36.4"/>
						<path class="st3" d="M44.7,37.1h-1.6c-0.4,0-0.7-0.3-0.7-0.7s0.3-0.7,0.7-0.7h1.6c0.4,0,0.7,0.3,0.7,0.7S45.1,37.1,44.7,37.1z
							"/>
					</g>
					<g>
						<line class="st4" x1="26.6" y1="36.4" x2="25.1" y2="36.4"/>
						<path class="st3" d="M26.6,37.1h-1.6c-0.4,0-0.7-0.3-0.7-0.7s0.3-0.7,0.7-0.7h1.6c0.4,0,0.7,0.3,0.7,0.7S27,37.1,26.6,37.1z"
							/>
					</g>
				</g>
				<g>
					<g>
						<line class="st4" x1="41.8" y1="43.3" x2="40.7" y2="42.2"/>
						<path class="st3" d="M41.8,44c-0.2,0-0.4-0.1-0.5-0.2l-1.1-1.1c-0.3-0.3-0.3-0.8,0-1c0.3-0.3,0.8-0.3,1,0l1.1,1.1
							c0.3,0.3,0.3,0.8,0,1C42.2,44,42,44,41.8,44z"/>
					</g>
					<g>
						<line class="st4" x1="29.1" y1="30.5" x2="27.9" y2="29.4"/>
						<path class="st3" d="M29.1,31.3c-0.2,0-0.4-0.1-0.5-0.2l-1.1-1.1c-0.3-0.3-0.3-0.8,0-1c0.3-0.3,0.8-0.3,1,0l1.1,1.1
							c0.3,0.3,0.3,0.8,0,1C29.4,31.2,29.2,31.3,29.1,31.3z"/>
					</g>
				</g>
			</g>
		</g>
	</g>
</g>
</svg>
